# Wavefront Obj file
# 
# verts: 143 uv-s: 228
mtllib CAXAR.mtl

g Cylinder001
#pivot 0.000000 0.000000 0.000000

v -15.638900 0.000000 40.562801
v -37.939899 0.000000 24.360201
v -46.458099 0.000000 -1.856100
v -37.939899 0.000000 -28.072500
v 63.533897 8.120800 -1.856100
v 42.745800 0.000000 -1.856100
v 34.227600 0.000000 -28.072500
v 51.045502 8.120800 -40.291401
v 11.926600 0.000000 -44.275101
v 18.350500 8.120800 -64.045799
v -15.638900 0.000000 -44.275101
v -22.062799 8.120800 -64.045799
v -54.757801 8.120800 -40.291401
v -67.246201 8.120800 -1.856100
v -54.757801 8.120800 36.579201
v -22.062799 8.120800 60.333500
v 11.926600 0.000000 40.562801
v 18.350500 8.120800 60.333500
v 34.227600 0.000000 24.360201
v 51.045502 8.120800 36.579102
v 73.195999 27.211300 -56.384800
v 90.913498 27.211300 -1.856100
v 26.811199 27.211300 -90.085297
v -30.523600 27.211300 -90.085297
v -76.908401 27.211300 -56.384701
v -94.625801 27.211300 -1.856100
v -76.908401 27.211300 52.672501
v -30.523600 27.211300 86.373001
v 26.811300 27.211300 86.373001
v 73.196098 27.211300 52.672501
v 92.786499 53.615002 -70.618103
v 115.128601 53.615002 -1.856100
v 34.294102 53.615002 -113.115311
v -38.006401 53.615002 -113.115311
v -96.498802 53.615002 -70.618103
v -118.840897 53.615002 -1.856100
v -96.498802 53.615002 66.905792
v -38.006401 53.615002 109.403000
v 34.294201 53.615002 109.403000
v 92.786499 53.615002 66.905701
v 101.924004 83.675301 -77.256805
v 126.423210 83.675301 -1.856100
v 37.784302 83.675301 -123.857010
v -41.496700 83.675301 -123.857010
v -105.636299 83.675301 -77.256805
v -130.135498 83.675301 -1.856100
v -105.636299 83.675301 73.544601
v -41.496601 83.675301 120.144699
v 37.784401 83.675301 120.144699
v 101.924004 83.675301 73.544495
v 115.041100 113.735497 -1.856100
v 92.715698 113.735497 -70.566605
v 34.267101 113.735497 -113.031998
v -37.979401 113.735603 -113.032104
v -96.428001 113.735497 -70.566605
v -118.753403 113.735497 -1.856100
v -96.428001 113.735603 66.854401
v -37.979401 113.735603 109.319702
v 34.267101 113.735497 109.319702
v 92.715698 113.735497 66.854294
v 57.268902 140.139206 -44.813000
v 71.226402 140.139206 -1.856100
v 20.727600 140.139206 -71.361801
v -24.439899 140.139206 -71.361801
v -60.981201 140.139206 -44.813000
v -74.938698 140.139206 -1.856100
v -60.981201 140.139206 41.100700
v -24.439899 140.139206 67.649490
v 20.727600 140.139206 67.649490
v 57.268902 140.139206 41.100700
v -23.530500 140.139206 -68.562897
v 19.818199 140.139206 -68.562897
v -58.600300 140.139206 -43.083199
v -60.848499 140.139206 -36.164001
v -71.995796 140.139206 -1.856100
v -69.747498 140.139206 5.063100
v -58.600300 140.139206 39.370899
v -52.714500 140.139206 43.647202
v -23.530500 140.139206 64.850601
v 19.818199 140.139206 64.850601
v 54.888000 140.139206 39.370899
v 107.626404 116.430298 -1.856100
v 68.283501 140.139206 -1.856100
v 54.888000 140.139206 -43.083199
v 86.717102 116.430298 -66.208405
v 31.975800 116.430298 -105.980209
v -35.688099 116.430298 -105.980301
v -90.429398 116.430298 -66.208405
v -90.429398 116.430397 62.496098
v -35.688099 116.430298 102.267899
v 31.975800 116.430298 102.267899
v 86.717102 116.430298 62.496098
v 35.270000 88.276802 112.406296
v -38.982300 88.276802 112.406296
v -35.713501 60.123199 102.345901
v 32.001202 60.123199 102.345901
v -90.495697 60.123199 62.544300
v -99.053596 88.276703 68.761993
v -111.420700 60.123199 -1.856100
v -121.998802 88.276703 -1.856100
v -90.495697 60.123199 -66.256607
v -99.053596 88.276802 -72.474197
v -35.713501 60.123199 -106.058197
v -38.982300 88.276802 -116.118607
v 32.001099 60.123199 -106.058197
v 35.270000 88.276802 -116.118607
v 86.783401 60.123199 -66.256607
v 95.341301 88.276802 -72.474197
v 107.708397 60.123199 -1.856100
v 118.286499 88.276802 -1.856100
v 86.783401 60.123199 62.544201
v 95.341301 88.276703 68.761902
v 68.435600 35.394299 49.213799
v 24.992901 35.394299 80.776703
v -28.705200 35.394299 80.776703
v -51.402302 17.514700 34.141201
v -72.147903 35.394299 49.213799
v -20.781099 17.514700 56.388802
v -63.098499 17.514700 -1.856100
v -88.741501 35.394299 -1.856100
v -51.402302 17.514700 -37.853500
v -72.147903 35.394299 -52.925999
v -20.781099 17.514700 -60.101101
v -28.705200 35.394299 -84.488998
v 17.068800 17.514700 -60.101101
v 24.992901 35.394299 -84.488998
v 47.689999 17.514700 -37.853500
v 68.435501 35.394299 -52.926102
v 59.386200 17.514700 -1.856100
v 85.029198 35.394299 -1.856100
v 47.689999 17.514700 34.141201
v 17.068800 17.514700 56.388802
v 11.052400 9.908900 37.872200
v -14.764700 9.908900 37.872200
v -35.651100 9.908900 22.697300
v -35.651100 9.908900 -26.409599
v -43.629002 9.908900 -1.856100
v 31.938801 9.908900 22.697300
v 39.916698 9.908900 -1.856100
v 31.938801 9.908900 -26.409599
v 11.052400 9.908900 -41.584499
v -14.764700 9.908900 -41.584499
v -111.338699 116.430298 -1.856100
# 143 positions

vt 0.429045 0.170601
vt 0.454227 0.205261
vt 0.494972 0.218500
vt 0.535717 0.205261
vt 0.494972 0.047553
vt 0.494972 0.079861
vt 0.535717 0.093100
vt 0.554707 0.066962
vt 0.560899 0.127760
vt 0.591626 0.117776
vt 0.560899 0.170601
vt 0.591626 0.180585
vt 0.554707 0.231399
vt 0.494972 0.250808
vt 0.435237 0.231399
vt 0.398318 0.180585
vt 0.429045 0.127760
vt 0.398318 0.117776
vt 0.454227 0.093100
vt 0.435237 0.066962
vt 0.579719 0.032536
vt 0.494972 0.005000
vt 0.632096 0.104626
vt 0.632096 0.193735
vt 0.579719 0.265825
vt 0.494972 0.293361
vt 0.410225 0.265825
vt 0.357848 0.193735
vt 0.357848 0.104626
vt 0.410225 0.032536
vt 0.675104 0.213127
vt 0.675104 0.319995
vt 0.634068 0.319995
vt 0.634068 0.235248
vt 0.110109 0.736416
vt 0.019201 0.736416
vt 0.049648 0.777452
vt 0.121739 0.777452
vt 0.222477 0.736416
vt 0.210847 0.777452
vt 0.313384 0.736416
vt 0.282937 0.777452
vt 0.561774 0.770857
vt 0.561774 0.877725
vt 0.602810 0.855604
vt 0.602810 0.770857
vt 0.561774 0.663988
vt 0.602810 0.686110
vt 0.019201 0.824797
vt 0.049648 0.783761
vt 0.121738 0.783761
vt 0.110109 0.824797
vt 0.222477 0.824797
vt 0.210847 0.783761
vt 0.282937 0.783761
vt 0.313384 0.824797
vt 0.675104 0.426863
vt 0.634068 0.404742
vt 0.721823 0.202809
vt 0.721823 0.319995
vt 0.104685 0.689697
vt 0.005000 0.689697
vt 0.227901 0.689697
vt 0.327586 0.689697
vt 0.515055 0.888043
vt 0.515055 0.770857
vt 0.515055 0.653671
vt 0.005000 0.871516
vt 0.104684 0.871516
vt 0.227901 0.871516
vt 0.327586 0.871516
vt 0.721823 0.437181
vt 0.768542 0.319995
vt 0.768542 0.213207
vt 0.019311 0.642978
vt 0.110151 0.642978
vt 0.222435 0.642978
vt 0.313274 0.642978
vt 0.468336 0.770857
vt 0.468336 0.877645
vt 0.468336 0.664068
vt 0.110151 0.918235
vt 0.019311 0.918235
vt 0.222435 0.918235
vt 0.313274 0.918235
vt 0.768542 0.426783
vt 0.111025 0.278570
vt 0.177787 0.300262
vt 0.177787 0.368358
vt 0.070999 0.333661
vt 0.005000 0.242821
vt 0.069763 0.221778
vt 0.069763 0.151580
vt 0.005000 0.130537
vt 0.111025 0.094788
vt 0.070999 0.039698
vt 0.177787 0.073096
vt 0.177787 0.005000
vt 0.244550 0.094788
vt 0.284576 0.039698
vt 0.350574 0.130537
vt 0.285811 0.151580
vt 0.285811 0.221778
vt 0.350574 0.242821
vt 0.244550 0.278570
vt 0.284576 0.333661
vt 0.074113 0.152993
vt 0.074113 0.220365
vt 0.113713 0.098489
vt 0.124467 0.094995
vt 0.177787 0.077670
vt 0.188541 0.081164
vt 0.241861 0.098489
vt 0.248507 0.107636
vt 0.281461 0.152993
vt 0.281461 0.220365
vt 0.241861 0.274870
vt 0.475124 0.306168
vt 0.475124 0.367314
vt 0.539198 0.388133
vt 0.575139 0.338665
vt 0.578798 0.442638
vt 0.636951 0.423743
vt 0.578798 0.510010
vt 0.636952 0.528905
vt 0.539198 0.564514
vt 0.575139 0.613982
vt 0.528444 0.568008
vt 0.475124 0.585333
vt 0.375109 0.613982
vt 0.464370 0.581839
vt 0.411050 0.564514
vt 0.313297 0.528905
vt 0.404404 0.555367
vt 0.371450 0.510010
vt 0.371450 0.442638
vt 0.313297 0.423743
vt 0.411050 0.388133
vt 0.375109 0.338665
vt 0.720075 0.005000
vt 0.714955 0.048756
vt 0.830356 0.048756
vt 0.825236 0.005000
vt 0.825276 0.092511
vt 0.720035 0.092511
vt 0.910417 0.092511
vt 0.923718 0.048756
vt 0.416870 0.862484
vt 0.373115 0.852821
vt 0.373115 0.752731
vt 0.416870 0.752731
vt 0.373115 0.652641
vt 0.416870 0.642978
vt 0.706176 0.481820
vt 0.791318 0.481820
vt 0.786237 0.525576
vt 0.692876 0.525576
vt 0.896558 0.481820
vt 0.901639 0.525576
vt 0.981700 0.481820
vt 0.995000 0.525576
vt 0.658221 0.787638
vt 0.701976 0.777974
vt 0.701976 0.677885
vt 0.658221 0.677885
vt 0.701976 0.577795
vt 0.658221 0.568132
vt 0.634894 0.092511
vt 0.621593 0.048756
vt 0.663410 0.130945
vt 0.730927 0.130945
vt 0.814384 0.130945
vt 0.189372 0.423008
vt 0.212798 0.390766
vt 0.261852 0.458284
vt 0.223949 0.470599
vt 0.133426 0.404830
vt 0.133426 0.364977
vt 0.077480 0.423008
vt 0.054054 0.390766
vt 0.042903 0.470599
vt 0.005000 0.458284
vt 0.042903 0.529425
vt 0.005000 0.541740
vt 0.077480 0.577015
vt 0.054054 0.609258
vt 0.133426 0.595193
vt 0.133426 0.635047
vt 0.189372 0.577015
vt 0.212798 0.609258
vt 0.223949 0.529425
vt 0.261852 0.541740
vt 0.195171 0.520074
vt 0.195171 0.479950
vt 0.171586 0.447488
vt 0.095266 0.447488
vt 0.133426 0.435089
vt 0.171586 0.552535
vt 0.133426 0.564934
vt 0.095266 0.552535
vt 0.071681 0.520074
vt 0.071681 0.479950
vt 0.614465 0.677885
vt 0.614465 0.577870
vt 0.740409 0.677885
vt 0.740409 0.598513
vt 0.614465 0.777899
vt 0.740409 0.757256
vt 0.981597 0.569332
vt 0.896519 0.569332
vt 0.885666 0.443387
vt 0.953184 0.443387
vt 0.791357 0.569332
vt 0.802210 0.443387
vt 0.706279 0.569332
vt 0.734692 0.443387
vt 0.460626 0.752731
vt 0.460626 0.652716
vt 0.334681 0.752731
vt 0.334681 0.673360
vt 0.460626 0.852746
vt 0.334681 0.832103
vt 0.910314 0.005000
vt 0.881901 0.130945
vt 0.634997 0.005000
vt 0.113713 0.274870
vt 0.177787 0.295689
vt 0.475124 0.646479
# 228 texture coordinates

vn -0.037887 -0.992455 0.116606
vn -0.198855 -0.969321 0.144477
vn -0.245799 -0.969321 0.000000
vn -0.149257 -0.982834 -0.108442
vn 0.470672 -0.882308 -0.000000
vn 0.184492 -0.982834 0.000000
vn 0.198856 -0.969321 -0.144477
vn 0.380782 -0.882308 -0.276654
vn 0.057011 -0.982834 -0.175462
vn 0.145446 -0.882308 -0.447636
vn -0.075956 -0.969321 -0.233768
vn -0.145446 -0.882308 -0.447636
vn -0.380782 -0.882308 -0.276654
vn -0.470672 -0.882308 0.000000
vn -0.380782 -0.882308 0.276654
vn -0.145446 -0.882308 0.447636
vn 0.075956 -0.969321 0.233768
vn 0.145446 -0.882308 0.447636
vn 0.198856 -0.969321 0.144477
vn 0.380782 -0.882308 0.276654
vn 0.532323 -0.753029 -0.386755
vn 0.657987 -0.753029 -0.000000
vn 0.203329 -0.753029 -0.625783
vn -0.203329 -0.753030 -0.625783
vn -0.532323 -0.753029 -0.386755
vn -0.657987 -0.753029 0.000000
vn -0.532323 -0.753029 0.386755
vn -0.203329 -0.753029 0.625783
vn 0.203329 -0.753029 0.625783
vn 0.532323 -0.753029 0.386755
vn 0.688696 -0.524719 -0.500367
vn 0.851276 -0.524719 0.000000
vn 0.263059 -0.524718 -0.809611
vn -0.263059 -0.524719 -0.809611
vn -0.688697 -0.524719 -0.500367
vn -0.851276 -0.524719 0.000000
vn -0.688696 -0.524719 0.500368
vn -0.263059 -0.524718 0.809612
vn 0.263059 -0.524718 0.809611
vn 0.688697 -0.524718 0.500367
vn 0.809016 0.001291 -0.587785
vn 0.999999 0.001290 0.000000
vn 0.309017 0.001291 -0.951056
vn -0.309017 0.001290 -0.951056
vn -0.809016 0.001290 -0.587785
vn -0.999999 0.001290 0.000000
vn -0.809016 0.001290 0.587785
vn -0.309016 0.001290 0.951056
vn 0.309017 0.001291 0.951056
vn 0.809016 0.001290 0.587785
vn 0.764553 0.644560 0.000000
vn 0.618537 0.644560 -0.449394
vn 0.236261 0.644560 -0.727134
vn -0.236260 0.644560 -0.727134
vn -0.618537 0.644560 -0.449393
vn -0.764553 0.644560 -0.000000
vn -0.618537 0.644560 0.449393
vn -0.236259 0.644560 0.727134
vn 0.236260 0.644560 0.727134
vn 0.618537 0.644560 0.449394
vn 0.215202 0.963972 -0.156353
vn 0.266004 0.963972 0.000000
vn 0.082200 0.963972 -0.252984
vn -0.082199 0.963972 -0.252984
vn -0.215202 0.963972 -0.156353
vn -0.212159 0.977235 -0.000000
vn -0.171640 0.977235 0.124703
vn -0.065560 0.977235 0.201775
vn 0.082200 0.963972 0.252984
vn 0.215202 0.963972 0.156353
vn 0.295568 0.291800 0.909666
vn -0.295569 0.291800 0.909666
vn 0.773808 0.291800 0.562204
vn 0.399791 0.907355 0.129900
vn 0.828014 -0.560707 0.000001
vn 0.399790 0.907355 -0.129900
vn 0.699915 -0.328433 -0.634233
vn 0.247085 0.907355 -0.340083
vn 0.295568 0.291801 -0.909666
vn -0.295568 0.291801 -0.909666
vn -0.773808 0.291800 -0.562205
vn -0.764554 -0.644560 -0.000000
vn -0.956479 0.291800 -0.000000
vn -0.773808 0.291800 0.562205
vn -0.618537 -0.644560 0.449393
vn -0.236260 -0.644560 0.727134
vn 0.236260 -0.644560 0.727134
vn 0.601857 -0.695199 0.393022
vn 0.601856 -0.695200 -0.393022
vn 0.255899 -0.695200 -0.671724
vn -0.236260 -0.644560 -0.727134
vn -0.618537 -0.644560 -0.449394
vn -0.309017 -0.001291 -0.951056
vn 0.309016 -0.001291 -0.951056
vn 0.263058 0.524719 -0.809611
vn -0.263059 0.524719 -0.809611
vn 0.688696 0.524719 -0.500367
vn 0.809016 -0.001290 -0.587785
vn 0.851276 0.524719 -0.000000
vn 0.999999 -0.001290 -0.000000
vn 0.688697 0.524719 0.500367
vn 0.809016 -0.001290 0.587785
vn 0.263059 0.524719 0.809611
vn 0.309017 -0.001290 0.951056
vn -0.263058 0.524719 0.809611
vn -0.309017 -0.001290 0.951056
vn -0.688696 0.524719 0.500367
vn -0.809016 -0.001291 0.587785
vn -0.851276 0.524719 -0.000000
vn -0.999999 -0.001290 -0.000000
vn -0.688697 0.524719 -0.500367
vn -0.809016 -0.001290 -0.587785
vn -0.532322 0.753030 -0.386755
vn -0.203329 0.753030 -0.625782
vn 0.203329 0.753030 -0.625782
vn 0.380783 0.882307 -0.276655
vn 0.532322 0.753030 -0.386755
vn 0.145446 0.882307 -0.447637
vn 0.470674 0.882307 -0.000000
vn 0.657986 0.753030 -0.000000
vn 0.380783 0.882307 0.276655
vn 0.532322 0.753030 0.386754
vn 0.145446 0.882307 0.447638
vn 0.203329 0.753030 0.625782
vn -0.145446 0.882307 0.447637
vn -0.203329 0.753030 0.625782
vn -0.380783 0.882307 0.276655
vn -0.532322 0.753030 0.386755
vn -0.470674 0.882307 0.000000
vn -0.657986 0.753030 0.000000
vn -0.380783 0.882307 -0.276655
vn -0.145446 0.882307 -0.447637
vn -0.075957 0.969320 -0.233771
vn 0.037888 0.992455 -0.116607
vn 0.198858 0.969320 -0.144479
vn 0.149259 0.982834 0.108443
vn 0.245802 0.969320 -0.000000
vn -0.198858 0.969320 -0.144479
vn -0.184494 0.982834 -0.000000
vn -0.198858 0.969320 0.144478
vn -0.057012 0.982834 0.175464
vn 0.075957 0.969320 0.233771
vn 0.764554 -0.644560 0.000000
# 143 normals

usemtl wire_088144225
f 1/1/1 2/2/2 3/3/3 4/4/4
f 5/5/5 6/6/6 7/7/7 8/8/8
f 8/8/8 7/7/7 9/9/9 10/10/10
f 10/10/10 9/9/9 11/11/11 12/12/12
f 12/12/12 11/11/11 4/4/4 13/13/13
f 13/13/13 4/4/4 3/3/3 14/14/14
f 14/14/14 3/3/3 2/2/2 15/15/15
f 16/16/16 15/15/15 2/2/2 1/1/1
f 16/16/16 1/1/1 17/17/17 18/18/18
f 18/18/18 17/17/17 19/19/19 20/20/20
f 5/5/5 20/20/20 19/19/19 6/6/6
f 21/21/21 22/22/22 5/5/5 8/8/8
f 23/23/23 21/21/21 8/8/8 10/10/10
f 23/23/23 10/10/10 12/12/12 24/24/24
f 25/25/25 24/24/24 12/12/12 13/13/13
f 26/26/26 25/25/25 13/13/13 14/14/14
f 26/26/26 14/14/14 15/15/15 27/27/27
f 28/28/28 27/27/27 15/15/15 16/16/16
f 28/28/28 16/16/16 18/18/18 29/29/29
f 30/30/30 29/29/29 18/18/18 20/20/20
f 22/22/22 30/30/30 20/20/20 5/5/5
f 31/31/31 32/32/32 22/33/22 21/34/21
f 33/35/33 31/36/31 21/37/21 23/38/23
f 34/39/34 33/35/33 23/38/23 24/40/24
f 35/41/35 34/39/34 24/40/24 25/42/25
f 36/43/36 35/44/35 25/45/25 26/46/26
f 37/47/37 36/43/36 26/46/26 27/48/27
f 37/49/37 27/50/27 28/51/28 38/52/38
f 39/53/39 38/52/38 28/51/28 29/54/29
f 39/53/39 29/54/29 30/55/30 40/56/40
f 40/57/40 30/58/30 22/33/22 32/32/32
f 41/59/41 42/60/42 32/32/32 31/31/31
f 43/61/43 41/62/41 31/36/31 33/35/33
f 43/61/43 33/35/33 34/39/34 44/63/44
f 44/63/44 34/39/34 35/41/35 45/64/45
f 45/65/45 35/44/35 36/43/36 46/66/46
f 47/67/47 46/66/46 36/43/36 37/47/37
f 47/68/47 37/49/37 38/52/38 48/69/48
f 49/70/49 48/69/48 38/52/38 39/53/39
f 49/70/49 39/53/39 40/56/40 50/71/50
f 50/72/50 40/57/40 32/32/32 42/60/42
f 51/73/51 42/60/42 41/59/41 52/74/52
f 52/75/52 41/62/41 43/61/43 53/76/53
f 53/76/53 43/61/43 44/63/44 54/77/54
f 55/78/55 54/77/54 44/63/44 45/64/45
f 56/79/56 55/80/55 45/65/45 46/66/46
f 56/79/56 46/66/46 47/67/47 57/81/57
f 58/82/58 57/83/57 47/68/47 48/69/48
f 59/84/59 58/82/58 48/69/48 49/70/49
f 59/84/59 49/70/49 50/71/50 60/85/60
f 51/73/51 60/86/60 50/72/50 42/60/42
f 61/87/61 62/88/62 51/89/51 52/90/52
f 61/87/61 52/90/52 53/91/53 63/92/63
f 64/93/64 63/92/63 53/91/53 54/94/54
f 65/95/65 64/93/64 54/94/54 55/96/55
f 66/97/66 65/95/65 55/96/55 56/98/56
f 67/99/67 66/97/66 56/98/56 57/100/57
f 67/99/67 57/100/57 58/101/58 68/102/68
f 69/103/69 68/102/68 58/101/58 59/104/59
f 70/105/70 69/103/69 59/104/59 60/106/60
f 70/105/70 60/106/60 51/89/51 62/88/62
f 63/92/63 64/93/64 71/107/71 72/108/72
f 71/107/71 64/93/64 65/95/65 73/109/73
f 74/110/74 73/109/73 65/95/65 66/97/66
f 74/110/74 66/97/66 75/111/75
f 76/112/76 75/111/75 66/97/66 67/99/67
f 76/112/76 67/99/67 77/113/77
f 78/114/78 77/113/77 67/99/67 68/102/68
f 79/115/79 68/102/68 69/103/69 80/116/80
f 70/105/70 81/117/81 80/116/80 69/103/69
f 82/118/82 83/119/83 84/120/84 85/121/85
f 85/121/85 84/120/84 72/122/72 86/123/86
f 86/123/86 72/122/72 71/124/71 87/125/87
f 71/124/71 73/126/73 88/127/88 87/125/87
f 74/128/74 75/129/75 88/127/88 73/126/73
f 89/130/89 75/129/75 76/131/76 77/132/77
f 90/133/90 77/132/77 78/134/78 79/135/79
f 90/133/90 79/135/79 80/136/80 91/137/91
f 80/136/80 81/138/81 92/139/92 91/137/91
f 91/140/91 93/141/93 94/142/94 90/143/90
f 95/144/95 94/142/94 93/141/93 96/145/96
f 95/144/95 97/146/97 98/147/98 94/142/94
f 98/148/98 97/149/97 99/150/99 100/151/100
f 99/150/99 101/152/101 102/153/102 100/151/100
f 101/154/101 103/155/103 104/156/104 102/157/102
f 103/155/103 105/158/105 106/159/106 104/156/104
f 106/159/106 105/158/105 107/160/107 108/161/108
f 108/162/108 107/163/107 109/164/109 110/165/110
f 109/164/109 111/166/111 112/167/112 110/165/110
f 111/168/111 96/145/96 93/141/93 112/169/112
f 96/145/96 111/168/111 113/170/113 114/171/114
f 96/145/96 114/171/114 115/172/115 95/144/95
f 116/173/116 117/174/117 115/175/115 118/176/118
f 116/173/116 119/177/119 120/178/120 117/174/117
f 120/178/120 119/177/119 121/179/121 122/180/122
f 122/180/122 121/179/121 123/181/123 124/182/124
f 124/182/124 123/181/123 125/183/125 126/184/126
f 126/184/126 125/183/125 127/185/127 128/186/128
f 128/186/128 127/185/127 129/187/129 130/188/130
f 130/188/130 129/187/129 131/189/131 113/190/113
f 113/190/113 131/189/131 132/191/132 114/192/114
f 118/176/118 132/191/132 133/193/133 134/194/134
f 118/176/118 134/194/134 135/195/135 116/173/116
f 134/194/134 136/196/136 137/197/137 135/195/135
f 138/198/138 133/193/133 132/191/132 131/189/131
f 129/187/129 139/199/139 138/198/138 131/189/131
f 140/200/140 139/199/139 129/187/129 127/185/127
f 141/201/141 140/200/140 127/185/127 125/183/125
f 142/202/142 141/201/141 125/183/125 123/181/123
f 136/196/136 142/202/142 123/181/123 121/179/121
f 137/197/137 136/196/136 121/179/121 119/177/119
f 135/195/135 137/197/137 119/177/119 116/173/116
f 132/191/132 118/176/118 115/175/115 114/192/114
f 82/203/82 110/165/110 112/167/112 92/204/92
f 130/205/130 113/206/113 111/166/111 109/164/109
f 108/162/108 110/165/110 82/203/82 85/207/85
f 107/163/107 128/208/128 130/205/130 109/164/109
f 106/159/106 108/161/108 85/209/85 86/210/86
f 105/158/105 126/211/126 128/212/128 107/160/107
f 104/156/104 106/159/106 86/210/86 87/213/87
f 103/155/103 124/214/124 126/211/126 105/158/105
f 88/215/88 102/157/102 104/156/104 87/213/87
f 101/154/101 122/216/122 124/214/124 103/155/103
f 143/217/143 100/151/100 102/153/102 88/218/88
f 120/219/120 122/220/122 101/152/101 99/150/99
f 98/148/98 100/151/100 143/217/143 89/221/89
f 97/149/97 117/222/117 120/219/120 99/150/99
f 90/143/90 94/142/94 98/147/98 89/223/89
f 115/172/115 117/224/117 97/146/97 95/144/95
f 91/140/91 92/225/92 112/169/112 93/141/93
f 81/138/81 83/119/83 82/118/82 92/139/92
f 17/17/17 1/1/1 6/6/6 19/19/19
f 1/1/1 9/9/9 7/7/7 6/6/6
f 1/1/1 4/4/4 11/11/11 9/9/9
f 63/92/63 72/108/72 84/226/84 61/87/61
f 68/102/68 79/115/79 78/114/78
f 84/226/84 83/227/83 62/88/62 61/87/61
f 83/227/83 81/117/81 70/105/70 62/88/62
f 88/127/88 75/129/75 143/228/143
f 75/129/75 89/130/89 143/228/143
f 77/132/77 90/133/90 89/130/89
f 139/199/139 134/194/134 133/193/133 138/198/138
f 140/200/140 141/201/141 134/194/134 139/199/139
f 142/202/142 136/196/136 134/194/134 141/201/141

# 144 faces
