# Wavefront Obj file
# 
# verts: 8 uv-s: 24
mtllib PEMOS.mtl

g Box001
#pivot 0.000000 0.000000 0.000000

v -57.335602 0.000000 24.000999
v -57.335602 0.000000 -24.000999
v 57.335602 0.000000 -24.000999
v 57.335602 0.000000 24.000999
v -57.335602 159.339798 24.000999
v 57.335602 159.339798 24.000999
v 57.335602 159.339798 -24.000999
v -57.335602 159.339798 -24.000999
# 8 positions

vt 0.503877 0.671232
vt 0.651830 0.671232
vt 0.651830 0.317788
vt 0.503877 0.317788
vt 0.808224 0.317788
vt 0.808224 0.671232
vt 0.660271 0.671232
vt 0.660271 0.317788
vt 0.496123 0.358444
vt 0.496123 0.005000
vt 0.005000 0.005000
vt 0.005000 0.358444
vt 0.503877 0.152954
vt 0.503877 0.005000
vt 0.995000 0.005000
vt 0.995000 0.152954
vt 0.496123 0.720723
vt 0.496123 0.367280
vt 0.005000 0.367280
vt 0.005000 0.720723
vt 0.995000 0.309348
vt 0.995000 0.161394
vt 0.503877 0.161394
vt 0.503877 0.309348
# 24 texture coordinates

vn -0.577350 -0.577350 0.577350
vn -0.577350 -0.577350 -0.577350
vn 0.577350 -0.577350 -0.577350
vn 0.577350 -0.577350 0.577350
vn -0.577350 0.577350 0.577350
vn 0.577350 0.577350 0.577350
vn 0.577350 0.577350 -0.577350
vn -0.577350 0.577350 -0.577350
# 8 normals

usemtl wire_196088225
f 1/1/1 2/2/2 3/3/3 4/4/4
f 5/5/5 6/6/6 7/7/7 8/8/8
f 1/9/1 4/10/4 6/11/6 5/12/5
f 4/13/4 3/14/3 7/15/7 6/16/6
f 3/17/3 2/18/2 8/19/8 7/20/7
f 2/21/2 1/22/1 5/23/5 8/24/8

# 6 faces
